<svg width="45" height="40" viewBox="0 0 45 40" fill="none" xmlns="http://www.w3.org/2000/svg">
<g clip-path="url(#clip0)">
<path d="M10.7458 38.1583C10.0494 38.1583 9.51918 37.6583 9.51918 37.0833V9.58325C9.51918 9.0082 10.0494 8.50825 10.7458 8.50825C11.4422 8.50825 11.9724 9.0082 11.9724 9.58325V37.0833C11.9724 37.6583 11.4422 38.1583 10.7458 38.1583Z" fill="#666666" stroke="#666666" stroke-width="0.35"/>
<path d="M43.4504 18.9917H10.7458C10.0494 18.9917 9.51918 18.4918 9.51918 17.9167C9.51918 17.3417 10.0494 16.8417 10.7458 16.8417H43.4504C44.1468 16.8417 44.677 17.3417 44.677 17.9167C44.677 18.4918 44.1468 18.9917 43.4504 18.9917Z" fill="#666666" stroke="#666666" stroke-width="0.35"/>
<path d="M43.4504 28.9917H10.7458C10.0494 28.9917 9.51918 28.4918 9.51918 27.9167C9.51918 27.3417 10.0494 26.8417 10.7458 26.8417H43.4504C44.1468 26.8417 44.677 27.3417 44.677 27.9167C44.677 28.4918 44.1468 28.9917 43.4504 28.9917Z" fill="#666666" stroke="#666666" stroke-width="0.35"/>
<path d="M39.7127 38.1584H5.1393C2.38155 38.1584 0.175 36.1635 0.175 33.7501V6.25008C0.175 3.8367 2.38155 1.84175 5.1393 1.84175H39.7127C42.4705 1.84175 44.677 3.8367 44.677 6.25008V33.7501C44.677 36.1635 42.4705 38.1584 39.7127 38.1584ZM5.1393 3.99175C3.7744 3.99175 2.62825 4.9868 2.62825 6.25008V33.7501C2.62825 35.0134 3.7744 36.0084 5.1393 36.0084H39.7127C41.0776 36.0084 42.2238 35.0134 42.2238 33.7501V6.25008C42.2238 4.9868 41.0776 3.99175 39.7127 3.99175H5.1393Z" fill="#666666" stroke="#666666" stroke-width="0.35"/>
<path d="M43.4504 9.825H1.40163C0.705202 9.825 0.175 9.32505 0.175 8.75C0.175 8.17495 0.705202 7.675 1.40163 7.675H43.4504C44.1468 7.675 44.677 8.17495 44.677 8.75C44.677 9.32505 44.1468 9.825 43.4504 9.825Z" fill="#666666" stroke="#666666" stroke-width="0.35"/>
</g>
<defs>
<clipPath id="clip0">
<rect width="44.852" height="40" fill="white"/>
</clipPath>
</defs>
</svg>
