<svg width="45" height="51" viewBox="0 0 45 51" fill="none" xmlns="http://www.w3.org/2000/svg">
<g clip-path="url(#clip0)">
<mask id="path-1-inside-1" fill="white">
<path d="M7.5 28.4766C5.94919 28.4766 4.6875 29.896 4.6875 31.6406V34.8047C4.6875 35.3871 5.10722 35.8594 5.625 35.8594H9.375C9.89278 35.8594 10.3125 35.3871 10.3125 34.8047V31.6406C10.3125 29.896 9.05081 28.4766 7.5 28.4766ZM8.4375 33.75H6.5625V31.6406C6.5625 31.0591 6.98306 30.5859 7.5 30.5859C8.01694 30.5859 8.4375 31.0591 8.4375 31.6406V33.75ZM37.5 28.4766C35.9492 28.4766 34.6875 29.896 34.6875 31.6406V34.8047C34.6875 35.3871 35.1072 35.8594 35.625 35.8594H39.375C39.8928 35.8594 40.3125 35.3871 40.3125 34.8047V31.6406C40.3125 29.896 39.0508 28.4766 37.5 28.4766ZM38.4375 33.75H36.5625V31.6406C36.5625 31.0591 36.9831 30.5859 37.5 30.5859C38.0169 30.5859 38.4375 31.0591 38.4375 31.6406V33.75ZM20.625 26.3672H24.375C24.8928 26.3672 25.3125 25.8949 25.3125 25.3125V24.2578C25.3125 22.5131 24.0508 21.0938 22.5 21.0938C20.9492 21.0938 19.6875 22.5131 19.6875 24.2578V25.3125C19.6875 25.8949 20.1072 26.3672 20.625 26.3672ZM22.5 23.2031C23.0169 23.2031 23.4375 23.6763 23.4375 24.2578H21.5625C21.5625 23.6763 21.9831 23.2031 22.5 23.2031ZM20.625 35.8594H24.375C24.8928 35.8594 25.3125 35.3871 25.3125 34.8047V31.6406C25.3125 29.896 24.0508 28.4766 22.5 28.4766C20.9492 28.4766 19.6875 29.896 19.6875 31.6406V34.8047C19.6875 35.3871 20.1072 35.8594 20.625 35.8594ZM21.5625 31.6406C21.5625 31.0591 21.9831 30.5859 22.5 30.5859C23.0169 30.5859 23.4375 31.0591 23.4375 31.6406V33.75H21.5625V31.6406ZM44.0625 48.5156V21.0938C44.0625 20.5114 43.6428 20.0391 43.125 20.0391H40.3125C39.2786 20.0391 38.4375 20.9685 38.4375 22.1108V24.1072H36.5625V22.1108C36.5625 20.9685 35.7214 20.0391 34.6875 20.0391H32.8125V17.9318C32.8125 17.9272 32.8125 17.9226 32.8125 17.918C32.8103 17.7008 32.75 17.4995 32.6481 17.3327L23.6268 2.10938H28.125C28.6428 2.10938 29.0625 1.63709 29.0625 1.05469C29.0625 0.472289 28.6428 0 28.125 0H23.4375C22.515 0 21.746 0.753469 21.591 1.74203L12.352 17.3327C12.2501 17.4995 12.1898 17.7008 12.1876 17.918C12.1876 17.9226 12.1876 17.9272 12.1876 17.9318V20.0391H10.3126C9.27872 20.0391 8.43759 20.9685 8.43759 22.1108V24.1072H6.5625V22.1108C6.5625 20.9685 5.72137 20.0391 4.6875 20.0391H2.8125C1.77863 20.0391 0.9375 20.9685 0.9375 22.1108V48.5156C0.419719 48.5156 0 48.9879 0 49.5703C0 50.1527 0.419719 50.625 0.9375 50.625H44.0625C44.5803 50.625 45 50.1527 45 49.5703C45 48.9879 44.5803 48.5156 44.0625 48.5156ZM12.1875 48.5156H2.8125V22.1484H4.6875V24.1449C4.6875 25.2872 5.52863 26.2166 6.5625 26.2166H8.4375C9.47137 26.2166 10.3125 25.2872 10.3125 24.1449V22.1484H12.1875V48.5156ZM22.5 4.01066L30.1233 16.875H14.8767L22.5 4.01066ZM27.1875 48.5156H17.8125V45.3516C17.8125 42.4438 19.9153 40.0781 22.5 40.0781C25.0847 40.0781 27.1875 42.4438 27.1875 45.3516V48.5156ZM30.9375 48.5156H29.0625V45.3516C29.0625 41.2806 26.1186 37.9688 22.5 37.9688C18.8814 37.9688 15.9375 41.2806 15.9375 45.3516V48.5156H14.0625V18.9844H30.9375V48.5156ZM42.1875 48.5156H32.8125V22.1484H34.6875V24.1449C34.6875 25.2872 35.5286 26.2166 36.5625 26.2166H38.4375C39.4714 26.2166 40.3125 25.2872 40.3125 24.1449V22.1484H42.1875V48.5156Z"/>
</mask>
<path d="M7.5 28.4766C5.94919 28.4766 4.6875 29.896 4.6875 31.6406V34.8047C4.6875 35.3871 5.10722 35.8594 5.625 35.8594H9.375C9.89278 35.8594 10.3125 35.3871 10.3125 34.8047V31.6406C10.3125 29.896 9.05081 28.4766 7.5 28.4766ZM8.4375 33.75H6.5625V31.6406C6.5625 31.0591 6.98306 30.5859 7.5 30.5859C8.01694 30.5859 8.4375 31.0591 8.4375 31.6406V33.75ZM37.5 28.4766C35.9492 28.4766 34.6875 29.896 34.6875 31.6406V34.8047C34.6875 35.3871 35.1072 35.8594 35.625 35.8594H39.375C39.8928 35.8594 40.3125 35.3871 40.3125 34.8047V31.6406C40.3125 29.896 39.0508 28.4766 37.5 28.4766ZM38.4375 33.75H36.5625V31.6406C36.5625 31.0591 36.9831 30.5859 37.5 30.5859C38.0169 30.5859 38.4375 31.0591 38.4375 31.6406V33.75ZM20.625 26.3672H24.375C24.8928 26.3672 25.3125 25.8949 25.3125 25.3125V24.2578C25.3125 22.5131 24.0508 21.0938 22.5 21.0938C20.9492 21.0938 19.6875 22.5131 19.6875 24.2578V25.3125C19.6875 25.8949 20.1072 26.3672 20.625 26.3672ZM22.5 23.2031C23.0169 23.2031 23.4375 23.6763 23.4375 24.2578H21.5625C21.5625 23.6763 21.9831 23.2031 22.5 23.2031ZM20.625 35.8594H24.375C24.8928 35.8594 25.3125 35.3871 25.3125 34.8047V31.6406C25.3125 29.896 24.0508 28.4766 22.5 28.4766C20.9492 28.4766 19.6875 29.896 19.6875 31.6406V34.8047C19.6875 35.3871 20.1072 35.8594 20.625 35.8594ZM21.5625 31.6406C21.5625 31.0591 21.9831 30.5859 22.5 30.5859C23.0169 30.5859 23.4375 31.0591 23.4375 31.6406V33.75H21.5625V31.6406ZM44.0625 48.5156V21.0938C44.0625 20.5114 43.6428 20.0391 43.125 20.0391H40.3125C39.2786 20.0391 38.4375 20.9685 38.4375 22.1108V24.1072H36.5625V22.1108C36.5625 20.9685 35.7214 20.0391 34.6875 20.0391H32.8125V17.9318C32.8125 17.9272 32.8125 17.9226 32.8125 17.918C32.8103 17.7008 32.75 17.4995 32.6481 17.3327L23.6268 2.10938H28.125C28.6428 2.10938 29.0625 1.63709 29.0625 1.05469C29.0625 0.472289 28.6428 0 28.125 0H23.4375C22.515 0 21.746 0.753469 21.591 1.74203L12.352 17.3327C12.2501 17.4995 12.1898 17.7008 12.1876 17.918C12.1876 17.9226 12.1876 17.9272 12.1876 17.9318V20.0391H10.3126C9.27872 20.0391 8.43759 20.9685 8.43759 22.1108V24.1072H6.5625V22.1108C6.5625 20.9685 5.72137 20.0391 4.6875 20.0391H2.8125C1.77863 20.0391 0.9375 20.9685 0.9375 22.1108V48.5156C0.419719 48.5156 0 48.9879 0 49.5703C0 50.1527 0.419719 50.625 0.9375 50.625H44.0625C44.5803 50.625 45 50.1527 45 49.5703C45 48.9879 44.5803 48.5156 44.0625 48.5156ZM12.1875 48.5156H2.8125V22.1484H4.6875V24.1449C4.6875 25.2872 5.52863 26.2166 6.5625 26.2166H8.4375C9.47137 26.2166 10.3125 25.2872 10.3125 24.1449V22.1484H12.1875V48.5156ZM22.5 4.01066L30.1233 16.875H14.8767L22.5 4.01066ZM27.1875 48.5156H17.8125V45.3516C17.8125 42.4438 19.9153 40.0781 22.5 40.0781C25.0847 40.0781 27.1875 42.4438 27.1875 45.3516V48.5156ZM30.9375 48.5156H29.0625V45.3516C29.0625 41.2806 26.1186 37.9688 22.5 37.9688C18.8814 37.9688 15.9375 41.2806 15.9375 45.3516V48.5156H14.0625V18.9844H30.9375V48.5156ZM42.1875 48.5156H32.8125V22.1484H34.6875V24.1449C34.6875 25.2872 35.5286 26.2166 36.5625 26.2166H38.4375C39.4714 26.2166 40.3125 25.2872 40.3125 24.1449V22.1484H42.1875V48.5156Z" fill="white" stroke="#666666" stroke-width="6" mask="url(#path-1-inside-1)"/>
</g>
<defs>
<clipPath id="clip0">
<rect width="45" height="50.625" fill="white"/>
</clipPath>
</defs>
</svg>
