<svg width="64" height="64" viewBox="0 0 64 64" fill="none" xmlns="http://www.w3.org/2000/svg">
<path d="M22.625 33.6562C23.488 33.6562 24.1875 32.9567 24.1875 32.0938V22.5625C24.1875 21.6995 23.488 21 22.625 21C21.762 21 21.0625 21.6995 21.0625 22.5625V32.0938C21.0625 32.9567 21.762 33.6562 22.625 33.6562Z" fill="#666666"/>
<path d="M28.4844 21C27.6214 21 26.9219 21.6995 26.9219 22.5625V32.3281C26.9219 34.6974 24.9943 36.625 22.625 36.625C20.2557 36.625 18.3281 34.6974 18.3281 32.3281V22.5625C18.3281 21.6995 17.6286 21 16.7656 21C15.9027 21 15.2031 21.6995 15.2031 22.5625V32.3281C15.2031 35.8846 17.7179 38.8645 21.0625 39.584V59.4375C21.0625 60.3005 21.762 61 22.625 61C23.488 61 24.1875 60.3005 24.1875 59.4375V39.584C27.5321 38.8645 30.0469 35.8846 30.0469 32.3281V22.5625C30.0469 21.6995 29.3473 21 28.4844 21Z" fill="#666666"/>
<path d="M46.888 25.1678C45.4136 22.4801 43.4557 21 41.375 21C39.2943 21 37.3364 22.4801 35.862 25.1678C34.6667 27.3463 33.9531 30.0231 33.9531 32.3281C33.9531 35.8846 36.4679 38.8645 39.8125 39.584V59.4375C39.8125 60.3005 40.512 61 41.375 61C42.238 61 42.9375 60.3005 42.9375 59.4375V39.584C46.2821 38.8645 48.7969 35.8846 48.7969 32.3281C48.7969 30.0231 48.0833 27.3463 46.888 25.1678ZM41.375 36.625C39.0057 36.625 37.0781 34.6974 37.0781 32.3281C37.0781 30.5516 37.662 28.3838 38.6016 26.6709C39.4632 25.1005 40.5259 24.125 41.375 24.125C42.2241 24.125 43.2868 25.1005 44.1484 26.6709C45.088 28.3838 45.6719 30.5516 45.6719 32.3281C45.6719 34.6974 43.7443 36.625 41.375 36.625Z" fill="#666666"/>
</svg>
